<?xml version="1.0" encoding="UTF-8"?>
<svg width="160px" height="61px" viewBox="0 0 160 61" version="1.1" xmlns="http://www.w3.org/2000/svg" xmlns:xlink="http://www.w3.org/1999/xlink">
    <!-- Generator: Sketch 63.1 (92452) - https://sketch.com -->
    <title>Group 56</title>
    <desc>Created with Sketch.</desc>
    <defs>
        <polygon id="path-1" points="0.282579592 0.141020243 4.99637551 0.141020243 4.99637551 7.44939271 0.282579592 7.44939271"></polygon>
        <polygon id="path-3" points="0 60.242915 159.811918 60.242915 159.811918 0.307044534 0 0.307044534"></polygon>
        <linearGradient x1="91.1629749%" y1="0%" x2="8.83702507%" y2="100%" id="linearGradient-5">
            <stop stop-color="#62CAEB" offset="0%"></stop>
            <stop stop-color="#7D4FAF" offset="100%"></stop>
        </linearGradient>
        <polygon id="path-6" points="0.175836735 0.307044534 42.6231837 0.307044534 42.6231837 43.1400162 0.175836735 43.1400162"></polygon>
    </defs>
    <g id="Page-1" stroke="none" stroke-width="1" fill="none" fill-rule="evenodd">
        <g id="page-accueil" transform="translate(-38.000000, -19.000000)">
            <g id="Group-56" transform="translate(38.000000, 19.000000)">
                <path d="M2.80241633,51.1049717 L0.000130612245,58.1773603 L0.693028571,58.1773603 L1.53482449,55.9571174 L4.78282449,55.9571174 L5.60502857,58.1773603 L6.29825306,58.1773603 L3.56519184,51.1049717 L2.80241633,51.1049717 Z M3.15898776,51.6746883 L4.55523265,55.3877247 L1.76274286,55.3877247 L3.15898776,51.6746883 Z" id="Fill-1" fill="#A8A8A8"></path>
                <g id="Group-44" transform="translate(0.000000, 0.016842)">
                    <g id="Group-4" transform="translate(6.530612, 52.793522)">
                        <mask id="mask-2" fill="white">
                            <use xlink:href="#path-1"></use>
                        </mask>
                        <g id="Clip-3"></g>
                        <path d="M4.4020898,2.8425587 C4.4020898,2.5348664 4.36421224,2.24822672 4.28813061,1.98296356 C4.21237551,1.7177004 4.10168163,1.48838866 3.95637551,1.29535223 C3.81106939,1.10231579 3.6298449,0.950089069 3.41172245,0.838672065 C3.19392653,0.727578947 2.94641633,0.671546559 2.66919184,0.671546559 C2.4180898,0.671546559 2.18723265,0.715919028 1.97596735,0.804340081 C1.76470204,0.892437247 1.57988571,1.0219919 1.42151837,1.19203239 C1.26282449,1.36272065 1.13906939,1.57033198 1.04992653,1.81583806 C0.960783673,2.06166802 0.91637551,2.34506883 0.91637551,2.6657166 C0.902987755,2.98636437 0.929436735,3.2862834 0.995395918,3.56450202 C1.06168163,3.84304453 1.16715102,4.08693117 1.31245714,4.29616194 C1.45743673,4.50604049 1.64257959,4.67122267 1.86690612,4.79235628 C2.09123265,4.91381377 2.35866122,4.97405668 2.66919184,4.97405668 C2.93955918,4.97405668 3.18249796,4.91672874 3.39702857,4.80207287 C3.61155918,4.687417 3.7931102,4.53389474 3.94168163,4.34053441 C4.09025306,4.14717409 4.20421224,3.9214251 4.28323265,3.66263968 C4.36257959,3.40385425 4.4020898,3.13081781 4.4020898,2.8425587 L4.4020898,2.8425587 Z M4.4020898,0.278672065 L4.99637551,0.278672065 L4.99637551,4.87559514 C4.99637551,5.21632389 4.96176327,5.54215385 4.89221224,5.85308502 C4.82298776,6.16401619 4.69923265,6.4377004 4.52094694,6.67316599 C4.34266122,6.90927935 4.09841633,7.09745749 3.78821224,7.23802429 C3.47768163,7.37891498 3.07833469,7.44952227 2.5898449,7.44952227 C2.21368163,7.44952227 1.8900898,7.40158704 1.61939592,7.30668826 C1.34870204,7.21178947 1.12764082,7.0922753 0.955885714,6.94846964 C0.784130612,6.80401619 0.653844898,6.64531174 0.564702041,6.47203239 C0.475559184,6.29842915 0.427885714,6.13648583 0.421355102,5.98587854 L1.05515102,5.98587854 C1.10119184,6.17567611 1.17368163,6.3311417 1.27294694,6.45259919 C1.37188571,6.57373279 1.4891102,6.66863158 1.62429388,6.73697166 C1.75980408,6.80595951 1.91000816,6.85357085 2.07490612,6.87980567 C2.23980408,6.9057166 2.41155918,6.91899595 2.5898449,6.91899595 C2.99245714,6.91899595 3.31604898,6.8500081 3.56029388,6.71268016 C3.80453878,6.57502834 3.9893551,6.39494737 4.11506939,6.17243725 C4.24013061,5.94960324 4.3211102,5.69729555 4.35768163,5.41583806 C4.39392653,5.13438057 4.40862041,4.84644534 4.4020898,4.55138462 C4.21074286,4.86587854 3.94821224,5.10328745 3.61482449,5.26393522 C3.28143673,5.42425911 2.93302857,5.504583 2.57025306,5.504583 C2.18037551,5.504583 1.84241633,5.43073684 1.55506939,5.28336842 C1.26772245,5.136 1.03033469,4.9397247 0.842253061,4.69421862 C0.653844898,4.44838866 0.513436735,4.16207287 0.421355102,3.83462348 C0.328620408,3.50717409 0.282579592,3.16676923 0.282579592,2.81308502 C0.282579592,2.43964372 0.325355102,2.08952227 0.411232653,1.76207287 C0.497110204,1.43462348 0.633926531,1.15122267 0.822334694,0.912194332 C1.01041633,0.673489879 1.24976327,0.484987854 1.54004898,0.347659919 C1.83066122,0.210008097 2.18396735,0.141020243 2.59964082,0.141020243 C2.76486531,0.141020243 2.93302857,0.164016194 3.10478367,0.210008097 C3.27653878,0.256 3.44306939,0.321425101 3.60502857,0.406607287 C3.76666122,0.491465587 3.91523265,0.599643725 4.05074286,0.730493927 C4.18592653,0.861668016 4.29662041,1.00903644 4.38217143,1.17259919 L4.4020898,1.17259919 L4.4020898,0.278672065 Z" id="Fill-2" fill="#A8A8A8" mask="url(#mask-2)"></path>
                    </g>
                    <path d="M16.5377959,55.262834 C16.5377959,55.0137652 16.5031837,54.779919 16.4339592,54.5603239 C16.3644082,54.3410526 16.2618776,54.1509312 16.1266939,53.9906073 C15.9915102,53.8302834 15.8213878,53.7026721 15.6166531,53.6077733 C15.4119184,53.5128745 15.1774694,53.4649393 14.9136327,53.4649393 C14.6494694,53.4649393 14.4166531,53.5144939 14.2155102,53.6123077 C14.0140408,53.7107692 13.8426122,53.8416194 13.7005714,54.0051822 C13.5585306,54.1690688 13.4445714,54.3588664 13.3590204,54.5752227 C13.2728163,54.7912551 13.2169796,55.0205668 13.1905306,55.262834 L16.5377959,55.262834 Z M13.1905306,55.7538462 C13.1905306,56.0288259 13.2267755,56.2892308 13.2995918,56.5347368 C13.3720816,56.7805668 13.4791837,56.9933603 13.6212245,57.1731174 C13.7632653,57.3535223 13.9431837,57.4973279 14.1609796,57.6051822 C14.3787755,57.7133603 14.6298776,57.7674494 14.9136327,57.7674494 C15.3031837,57.7674494 15.6365714,57.6660729 15.9137959,57.462996 C16.1910204,57.2602429 16.3758367,56.9716599 16.4685714,56.5985425 L17.1317551,56.5985425 C17.0592653,56.8408097 16.9635918,57.0649393 16.8447347,57.2712551 C16.7258776,57.4778947 16.5773061,57.6579757 16.3990204,57.8118219 C16.2207347,57.965668 16.0094694,58.0851822 15.7652245,58.1703644 C15.5209796,58.2552227 15.2372245,58.2979757 14.9136327,58.2979757 C14.5041633,58.2979757 14.1511837,58.2289879 13.8540408,58.0916599 C13.556898,57.954332 13.3126531,57.7661538 13.1213061,57.5268016 C12.9296327,57.2877733 12.7879184,57.0063158 12.6955102,56.6821053 C12.6027755,56.3578947 12.5567347,56.0093927 12.5567347,55.6359514 C12.5567347,55.262834 12.6112653,54.9123887 12.7203265,54.5849393 C12.8290612,54.2574899 12.9841633,53.9711741 13.1856327,53.7253441 C13.387102,53.4798381 13.6329796,53.2868016 13.9232653,53.1459109 C14.2138776,53.0050202 14.544,52.9347368 14.9136327,52.9347368 C15.6199184,52.9347368 16.1746939,53.1753846 16.5773061,53.6566802 C16.9799184,54.1379757 17.1781224,54.837247 17.1715918,55.7538462 L13.1905306,55.7538462 Z" id="Fill-5" fill="#A8A8A8"></path>
                    <path d="M18.7262367,58.1604211 L18.131951,58.1604211 L18.131951,53.0721619 L18.7262367,53.0721619 L18.7262367,53.7795304 C18.963951,53.5307854 19.209502,53.3277085 19.4638694,53.1706235 C19.7182367,53.0132146 20.0235429,52.9345101 20.3797878,52.9345101 C20.696849,52.9345101 20.9907265,52.9885992 21.2614204,53.0967773 C21.5321143,53.2046316 21.7597061,53.3931336 21.9445224,53.6616356 C22.0699102,53.8449555 22.1443592,54.0334575 22.1675429,54.2264939 C22.1904,54.4195304 22.2021551,54.6209879 22.2021551,54.8305425 L22.2021551,58.1604211 L21.6078694,58.1604211 L21.6078694,54.8402591 C21.6078694,54.3819595 21.5056653,54.0379919 21.3009306,53.8086802 C21.0961959,53.5796923 20.7562776,53.4650364 20.280849,53.4650364 C20.0960327,53.4650364 19.9278694,53.4932146 19.7757061,53.5485992 C19.6238694,53.6046316 19.4870531,53.67783 19.3649306,53.7694899 C19.2428082,53.8614737 19.1386449,53.9660891 19.0527673,54.0839838 C18.9672163,54.2018785 18.9009306,54.326251 18.8548898,54.4571012 C18.7954612,54.6209879 18.7592163,54.7783968 18.7461551,54.9286802 C18.7327673,55.0792874 18.7262367,55.2428502 18.7262367,55.4196923 L18.7262367,58.1604211 Z" id="Fill-7" fill="#A8A8A8"></path>
                    <path d="M27.074449,54.6732632 C26.9686531,54.293668 26.7874286,53.9973117 26.5297959,53.7845182 C26.2721633,53.5717247 25.9453061,53.465166 25.549551,53.465166 C25.245551,53.465166 24.9849796,53.5273522 24.7671837,53.6517247 C24.5490612,53.7760972 24.3707755,53.9416032 24.2323265,54.147919 C24.093551,54.3542348 23.9913469,54.5864615 23.9250612,54.845247 C23.859102,55.1040324 23.8261224,55.3644372 23.8261224,55.6261377 C23.8261224,55.8946397 23.8574694,56.156664 23.9201633,56.4118866 C23.9828571,56.6674332 24.0837551,56.8967449 24.2225306,57.099498 C24.3609796,57.3025749 24.5392653,57.4645182 24.7570612,57.5856518 C24.9748571,57.7071093 25.2390204,57.7676761 25.549551,57.7676761 C25.9916735,57.7676761 26.3466122,57.6465425 26.6140408,57.4042753 C26.8814694,57.1620081 27.0512653,56.8277571 27.1237551,56.40217 L27.7578776,56.40217 C27.7049796,56.6836275 27.6207347,56.9407935 27.5051429,57.1733441 C27.389551,57.4058947 27.2409796,57.6054089 27.0597551,57.7722105 C26.8778776,57.939336 26.6617143,58.0685668 26.4109388,58.1605506 C26.1598367,58.2522105 25.8728163,58.2978785 25.549551,58.2978785 C25.1400816,58.2978785 24.7867755,58.2292146 24.4896327,58.0918866 C24.1924898,57.9542348 23.9482449,57.7660567 23.756898,57.5270283 C23.5652245,57.2876761 23.4235102,57.0045992 23.331102,56.6771498 C23.2383673,56.3500243 23.1923265,55.9995789 23.1923265,55.6261377 C23.1923265,55.2727773 23.2435918,54.933668 23.3461224,54.6094575 C23.4483265,54.2855709 23.5985306,53.9989312 23.7964082,53.7498623 C23.9946122,53.5011174 24.2404898,53.3032227 24.5343673,53.1555304 C24.8279184,53.0081619 25.1665306,52.9346397 25.549551,52.9346397 C26.1435102,52.9346397 26.6238367,53.0755304 26.9902041,53.3573117 C27.3565714,53.6387692 27.5857959,54.0776356 27.6785306,54.6732632 L27.074449,54.6732632 Z" id="Fill-9" fill="#A8A8A8"></path>
                    <path d="M32.4617469,55.262834 C32.4617469,55.0137652 32.4271347,54.779919 32.3579102,54.5603239 C32.2883592,54.3410526 32.1858286,54.1509312 32.0506449,53.9906073 C31.9154612,53.8302834 31.7453388,53.7026721 31.5406041,53.6077733 C31.3358694,53.5128745 31.1014204,53.4649393 30.8375837,53.4649393 C30.5734204,53.4649393 30.3406041,53.5144939 30.1394612,53.6123077 C29.9379918,53.7107692 29.7665633,53.8416194 29.6245224,54.0051822 C29.4824816,54.1690688 29.3685224,54.3588664 29.2829714,54.5752227 C29.1967673,54.7912551 29.1409306,55.0205668 29.1144816,55.262834 L32.4617469,55.262834 Z M29.1144816,55.7538462 C29.1144816,56.0288259 29.1507265,56.2892308 29.2235429,56.5347368 C29.2960327,56.7805668 29.4031347,56.9933603 29.5451755,57.1731174 C29.6872163,57.3535223 29.8671347,57.4973279 30.0849306,57.6051822 C30.3027265,57.7133603 30.5538286,57.7674494 30.8375837,57.7674494 C31.2271347,57.7674494 31.5605224,57.6660729 31.8377469,57.462996 C32.1149714,57.2602429 32.2997878,56.9716599 32.3925224,56.5985425 L33.0557061,56.5985425 C32.9832163,56.8408097 32.8875429,57.0649393 32.7686857,57.2712551 C32.6498286,57.4778947 32.5012571,57.6579757 32.3229714,57.8118219 C32.1446857,57.965668 31.9334204,58.0851822 31.6891755,58.1703644 C31.4449306,58.2552227 31.1611755,58.2979757 30.8375837,58.2979757 C30.4281143,58.2979757 30.0751347,58.2289879 29.7779918,58.0916599 C29.480849,57.954332 29.2366041,57.7661538 29.0452571,57.5268016 C28.8535837,57.2877733 28.7118694,57.0063158 28.6194612,56.6821053 C28.5267265,56.3578947 28.4806857,56.0093927 28.4806857,55.6359514 C28.4806857,55.262834 28.5352163,54.9123887 28.6442776,54.5849393 C28.7530122,54.2574899 28.9081143,53.9711741 29.1095837,53.7253441 C29.3110531,53.4798381 29.5569306,53.2868016 29.8472163,53.1459109 C30.1378286,53.0050202 30.467951,52.9347368 30.8375837,52.9347368 C31.5438694,52.9347368 32.0986449,53.1753846 32.5012571,53.6566802 C32.9038694,54.1379757 33.1020735,54.837247 33.0955429,55.7538462 L29.1144816,55.7538462 Z" id="Fill-11" fill="#A8A8A8"></path>
                    <path d="M40.5720816,55.5965344 C40.5720816,55.3085992 40.5325714,55.0352389 40.4532245,54.7764534 C40.3742041,54.5179919 40.2602449,54.291919 40.1116735,54.0988826 C39.963102,53.9055223 39.781551,53.7516761 39.5670204,53.6370202 C39.3524898,53.5226883 39.109551,53.4650364 38.8391837,53.4650364 C38.5286531,53.4650364 38.2612245,53.5256032 38.036898,53.6467368 C37.8125714,53.7678704 37.6274286,53.9333765 37.482449,54.1429312 C37.3371429,54.3524858 37.2316735,54.5963725 37.1653878,54.8745911 C37.0994286,55.1531336 37.0729796,55.4527287 37.0863673,55.7733765 C37.0863673,56.0943482 37.1307755,56.3774251 37.2199184,56.6232551 C37.3090612,56.8687611 37.4328163,57.0766964 37.5915102,57.2470607 C37.7498776,57.4171012 37.9346939,57.5466559 38.1459592,57.6350769 C38.3572245,57.7231741 38.5880816,57.7675466 38.8391837,57.7675466 C39.1164082,57.7675466 39.3639184,57.7118381 39.5817143,57.6004211 C39.7998367,57.4893279 39.9810612,57.3371012 40.1263673,57.1437409 C40.2716735,56.9507045 40.3823673,56.7213927 40.4581224,56.4561296 C40.5342041,56.1908664 40.5720816,55.9045506 40.5720816,55.5965344 L40.5720816,55.5965344 Z M40.5720816,51.0880324 L41.1663673,51.0880324 L41.1663673,58.1604211 L40.5720816,58.1604211 L40.5720816,57.2664939 L40.5521633,57.2664939 C40.4666122,57.4371822 40.3559184,57.5858462 40.2207347,57.7134575 C40.0852245,57.8413927 39.9366531,57.9476275 39.7750204,58.0324858 C39.6130612,58.1179919 39.4465306,58.1830931 39.2747755,58.229085 C39.1030204,58.2750769 38.9348571,58.2980729 38.7696327,58.2980729 C38.3539592,58.2980729 38.0006531,58.229085 37.7100408,58.0917571 C37.4197551,57.9541053 37.1804082,57.7659271 36.9923265,57.5268988 C36.8039184,57.2878704 36.667102,57.0047935 36.5812245,56.6773441 C36.4953469,56.3498947 36.4525714,55.9994494 36.4525714,55.626332 C36.4525714,55.2726478 36.4986122,54.931919 36.5913469,54.6044696 C36.6834286,54.2773441 36.8238367,53.9907045 37.0122449,53.7451984 C37.2003265,53.4993684 37.4377143,53.3030931 37.7250612,53.1557247 C38.0124082,53.0083563 38.3503673,52.9345101 38.7402449,52.9345101 C39.1030204,52.9345101 39.4514286,53.014834 39.7848163,53.1751579 C40.1182041,53.3361296 40.3807347,53.5732146 40.5720816,53.8877085 L40.5720816,51.0880324 Z" id="Fill-13" fill="#A8A8A8"></path>
                    <path d="M46.1771429,55.262834 C46.1771429,55.0137652 46.1425306,54.779919 46.0733061,54.5603239 C46.0037551,54.3410526 45.9012245,54.1509312 45.7660408,53.9906073 C45.6308571,53.8302834 45.4607347,53.7026721 45.256,53.6077733 C45.0512653,53.5128745 44.8168163,53.4649393 44.5529796,53.4649393 C44.2888163,53.4649393 44.056,53.5144939 43.8548571,53.6123077 C43.6533878,53.7107692 43.4819592,53.8416194 43.3399184,54.0051822 C43.1978776,54.1690688 43.0839184,54.3588664 42.9983673,54.5752227 C42.9121633,54.7912551 42.8563265,55.0205668 42.8298776,55.262834 L46.1771429,55.262834 Z M42.8298776,55.7538462 C42.8298776,56.0288259 42.8661224,56.2892308 42.9389388,56.5347368 C43.0114286,56.7805668 43.1185306,56.9933603 43.2605714,57.1731174 C43.4026122,57.3535223 43.5825306,57.4973279 43.8003265,57.6051822 C44.0181224,57.7133603 44.2692245,57.7674494 44.5529796,57.7674494 C44.9425306,57.7674494 45.2759184,57.6660729 45.5531429,57.462996 C45.8303673,57.2602429 46.0151837,56.9716599 46.1079184,56.5985425 L46.771102,56.5985425 C46.6986122,56.8408097 46.6029388,57.0649393 46.4840816,57.2712551 C46.3652245,57.4778947 46.2166531,57.6579757 46.0383673,57.8118219 C45.8600816,57.965668 45.6488163,58.0851822 45.4045714,58.1703644 C45.1603265,58.2552227 44.8765714,58.2979757 44.5529796,58.2979757 C44.1435102,58.2979757 43.7905306,58.2289879 43.4933878,58.0916599 C43.1962449,57.954332 42.952,57.7661538 42.7606531,57.5268016 C42.5689796,57.2877733 42.4272653,57.0063158 42.3348571,56.6821053 C42.2421224,56.3578947 42.1960816,56.0093927 42.1960816,55.6359514 C42.1960816,55.262834 42.2506122,54.9123887 42.3596735,54.5849393 C42.4684082,54.2574899 42.6235102,53.9711741 42.8249796,53.7253441 C43.026449,53.4798381 43.2723265,53.2868016 43.5626122,53.1459109 C43.8532245,53.0050202 44.1833469,52.9347368 44.5529796,52.9347368 C45.2592653,52.9347368 45.8140408,53.1753846 46.2166531,53.6566802 C46.6192653,54.1379757 46.8174694,54.837247 46.8109388,55.7538462 L42.8298776,55.7538462 Z" id="Fill-15" fill="#A8A8A8"></path>
                    <path d="M51.0891102,57.5907692 L52.703151,57.5907692 C53.0068245,57.5907692 53.2925388,57.5726316 53.5596408,57.5366802 C53.8270694,57.5007287 54.0993959,57.4106883 54.3769469,57.2665587 C54.6143347,57.148664 54.8092735,56.9883401 54.9611102,56.7852632 C55.1129469,56.5825101 55.2334367,56.3612955 55.3225796,56.1222672 C55.4117224,55.8832389 55.4744163,55.6328745 55.5106612,55.3708502 C55.5469061,55.1088259 55.5651918,54.8568421 55.5651918,54.6145749 C55.5651918,54.3587045 55.5485388,54.0989474 55.5155592,53.8333603 C55.4825796,53.5684211 55.4198857,53.3164372 55.3274776,53.077085 C55.2350694,52.8380567 55.1096816,52.6187854 54.9513143,52.4189474 C54.7926204,52.2194332 54.5878857,52.0539271 54.3371102,51.9230769 C54.1258449,51.8116599 53.8750694,51.7397571 53.5847837,51.7067206 C53.2938449,51.6740081 53.0002939,51.6578138 52.703151,51.6578138 L51.0891102,51.6578138 L51.0891102,57.5907692 Z M50.4154776,58.1604858 L50.4154776,51.0880972 L52.8517224,51.0880972 C53.0499265,51.0880972 53.2445388,51.0929555 53.4358857,51.102996 C53.6272327,51.1127126 53.8156408,51.1353846 54.0004571,51.1716599 C54.1852735,51.2076113 54.3651918,51.2617004 54.5402122,51.3336032 C54.7149061,51.4055061 54.8850286,51.5004049 55.0502531,51.6186235 C55.2879673,51.7889879 55.4825796,51.9969231 55.6344163,52.2421053 C55.7862531,52.4876113 55.9067429,52.7467206 55.9958857,53.0181377 C56.0850286,53.2902024 56.1477224,53.5648583 56.1842939,53.8434008 C56.2202122,54.1216194 56.238498,54.3787854 56.238498,54.6145749 C56.238498,54.8500405 56.2238041,55.0890688 56.1940898,55.331336 C56.1643755,55.5736032 56.1163755,55.811336 56.0504163,56.0438866 C55.9844571,56.2761134 55.8969469,56.4989474 55.7878857,56.711417 C55.679151,56.9242105 55.5420082,57.1191903 55.3771102,57.2960324 C55.2118857,57.4793522 55.0319673,57.6267206 54.8373551,57.7381377 C54.6424163,57.8495547 54.4376816,57.9360324 54.2234776,57.9985425 C54.0086204,58.0607287 53.7859265,58.1031579 53.5547429,58.12583 C53.3235592,58.1491498 53.0894367,58.1604858 52.8517224,58.1604858 L50.4154776,58.1604858 Z" id="Fill-17" fill="#818181"></path>
                    <path d="M58.7536653,52.5221377 L59.8527673,51.1566316 L60.6152163,51.1566316 L59.2584816,52.5221377 L58.7536653,52.5221377 Z M60.9917061,55.2628664 C60.9917061,55.0137976 60.9570939,54.7799514 60.8878694,54.5603563 C60.8183184,54.341085 60.7157878,54.1509636 60.5806041,53.9906397 C60.4454204,53.8303158 60.275298,53.7027045 60.0705633,53.6078057 C59.8658286,53.5129069 59.6313796,53.4649717 59.3675429,53.4649717 C59.1033796,53.4649717 58.8705633,53.5142024 58.6694204,53.6123401 C58.467951,53.7108016 58.2965224,53.8416518 58.1544816,54.0052146 C58.0124408,54.1691012 57.8984816,54.3588988 57.8129306,54.5752551 C57.7267265,54.7912874 57.6708898,55.0205992 57.6444408,55.2628664 L60.9917061,55.2628664 Z M57.6444408,55.7538785 C57.6444408,56.0288583 57.6806857,56.2892632 57.753502,56.5347692 C57.8259918,56.7802753 57.9330939,56.9933927 58.0751347,57.1731498 C58.2171755,57.3535547 58.3970939,57.4973603 58.6148898,57.6052146 C58.8326857,57.7133927 59.0837878,57.7674818 59.3675429,57.7674818 C59.7570939,57.7674818 60.0904816,57.6661053 60.3677061,57.4630283 C60.6449306,57.2602753 60.8297469,56.9716923 60.9224816,56.5985749 L61.5856653,56.5985749 C61.5131755,56.8408421 61.417502,57.0649717 61.2986449,57.2712874 C61.1797878,57.4779271 61.0312163,57.6576842 60.8529306,57.8118543 C60.6746449,57.9657004 60.4633796,58.0852146 60.2191347,58.1700729 C59.9748898,58.2552551 59.6911347,58.2980081 59.3675429,58.2980081 C58.9580735,58.2980081 58.6050939,58.2290202 58.307951,58.0916923 C58.0108082,57.9540405 57.7665633,57.7658623 57.5752163,57.526834 C57.3835429,57.2878057 57.2418286,57.0063482 57.1494204,56.6821377 C57.0566857,56.3579271 57.0106449,56.0094251 57.0106449,55.6359838 C57.0106449,55.2628664 57.0651755,54.9124211 57.1742367,54.5849717 C57.2829714,54.2575223 57.4380735,53.9712065 57.6395429,53.7253765 C57.8410122,53.4798704 58.0868898,53.286834 58.3771755,53.1459433 C58.6677878,53.0050526 58.9979102,52.9344453 59.3675429,52.9344453 C60.0738286,52.9344453 60.6286041,53.175417 61.0312163,53.6567126 C61.4338286,54.1380081 61.6320327,54.8369555 61.625502,55.7538785 L57.6444408,55.7538785 Z" id="Fill-19" fill="#818181"></path>
                    <polygon id="Fill-21" fill="#818181" points="62.0414694 53.0721943 62.6850612 53.0721943 64.3487347 57.4336518 66.0124082 53.0721943 66.6563265 53.0721943 64.6657959 58.1604534 64.0022857 58.1604534"></polygon>
                    <path d="M71.0532571,55.262834 C71.0532571,55.0137652 71.0186449,54.779919 70.9494204,54.5603239 C70.8798694,54.3410526 70.7773388,54.1509312 70.6421551,53.9906073 C70.5069714,53.8302834 70.336849,53.7026721 70.1321143,53.6077733 C69.9273796,53.5128745 69.6929306,53.4649393 69.4290939,53.4649393 C69.1649306,53.4649393 68.9321143,53.5144939 68.7309714,53.6123077 C68.529502,53.7107692 68.3580735,53.8416194 68.2160327,54.0051822 C68.0739918,54.1690688 67.9600327,54.3588664 67.8744816,54.5752227 C67.7882776,54.7912551 67.7324408,55.0205668 67.7059918,55.262834 L71.0532571,55.262834 Z M67.7059918,55.7538462 C67.7059918,56.0288259 67.7422367,56.2892308 67.8150531,56.5347368 C67.8875429,56.7805668 67.9946449,56.9933603 68.1366857,57.1731174 C68.2787265,57.3535223 68.4586449,57.4973279 68.6764408,57.6051822 C68.8942367,57.7133603 69.1453388,57.7674494 69.4290939,57.7674494 C69.8186449,57.7674494 70.1520327,57.6660729 70.4292571,57.462996 C70.7064816,57.2602429 70.891298,56.9716599 70.9840327,56.5985425 L71.6472163,56.5985425 C71.5747265,56.8408097 71.4790531,57.0649393 71.3601959,57.2712551 C71.2413388,57.4778947 71.0927673,57.6579757 70.9144816,57.8118219 C70.7361959,57.965668 70.5249306,58.0851822 70.2806857,58.1703644 C70.0364408,58.2552227 69.7526857,58.2979757 69.4290939,58.2979757 C69.0196245,58.2979757 68.6666449,58.2289879 68.369502,58.0916599 C68.0723592,57.954332 67.8281143,57.7661538 67.6367673,57.5268016 C67.4450939,57.2877733 67.3033796,57.0063158 67.2109714,56.6821053 C67.1182367,56.3578947 67.0721959,56.0093927 67.0721959,55.6359514 C67.0721959,55.262834 67.1267265,54.9123887 67.2357878,54.5849393 C67.3445224,54.2574899 67.4996245,53.9711741 67.7010939,53.7253441 C67.9025633,53.4798381 68.1484408,53.2868016 68.4387265,53.1459109 C68.7293388,53.0050202 69.0594612,52.9347368 69.4290939,52.9347368 C70.1353796,52.9347368 70.6901551,53.1753846 71.0927673,53.6566802 C71.4953796,54.1379757 71.6935837,54.837247 71.6870531,55.7538462 L67.7059918,55.7538462 Z" id="Fill-23" fill="#818181"></path>
                    <mask id="mask-4" fill="white">
                        <use xlink:href="#path-3"></use>
                    </mask>
                    <g id="Clip-26"></g>
                    <polygon id="Fill-25" fill="#818181" mask="url(#mask-4)" points="72.7366531 58.1603239 73.3309388 58.1603239 73.3309388 51.0879352 72.7366531 51.0879352"></polygon>
                    <path d="M78.4306286,55.6164534 C78.4306286,55.3152389 78.397649,55.0334575 78.3316898,54.7717571 C78.2657306,54.5097328 78.1632,54.2820405 78.024751,54.0886802 C77.8859755,53.8959676 77.7076898,53.7437409 77.4898939,53.632 C77.272098,53.5209069 77.0046694,53.4648745 76.6879347,53.4648745 C76.3774041,53.4648745 76.1116082,53.5257652 75.8905469,53.6468988 C75.6691592,53.7680324 75.4895673,53.9283563 75.3507918,54.1281943 C75.2123429,54.3277085 75.1098122,54.5570202 75.0438531,54.8158057 C74.9778939,55.0745911 74.9449143,55.3411498 74.9449143,55.6164534 C74.9449143,55.9306235 74.9827918,56.220502 75.0588735,56.4857652 C75.1346286,56.7510283 75.2453224,56.9783968 75.390302,57.1681943 C75.5356082,57.3583158 75.7171592,57.5056842 75.9349551,57.6102996 C76.1530776,57.714915 76.4038531,57.7677085 76.6879347,57.7677085 C76.9981388,57.7677085 77.2636082,57.7071417 77.4849959,57.5856842 C77.7060571,57.4645506 77.8859755,57.3026073 78.024751,57.0995304 C78.1632,56.8967773 78.2657306,56.6674656 78.3316898,56.411919 C78.397649,56.1566964 78.4306286,55.8914332 78.4306286,55.6164534 M76.6879347,58.2979109 C76.3574857,58.2914332 76.0492408,58.2324858 75.7618939,58.1210688 C75.4745469,58.0099757 75.2237714,57.8428502 75.0092408,57.6203401 C74.7947102,57.3975061 74.6245878,57.1192874 74.4992,56.7850364 C74.3738122,56.4511093 74.3111184,56.0617976 74.3111184,55.6164534 C74.3111184,55.2430121 74.360751,54.8945101 74.4596898,54.5702996 C74.5586286,54.2460891 74.7072,53.9630121 74.9054041,53.7204211 C75.1032816,53.4781538 75.3507918,53.2870607 75.6479347,53.1458462 C75.9450776,53.0049555 76.2915265,52.9346721 76.6879347,52.9346721 C77.0905469,52.9346721 77.4402612,53.0049555 77.7374041,53.1458462 C78.0345469,53.2870607 78.2820571,53.4768583 78.4802612,53.7155628 C78.6781388,53.9545911 78.8250776,54.2379919 78.920751,54.5654413 C79.0164245,54.8928907 79.0644245,55.2430121 79.0644245,55.6164534 C79.0644245,56.0226073 79.0082612,56.389247 78.8962612,56.7163725 C78.7839347,57.0438219 78.6239347,57.3252794 78.4159347,57.5613927 C78.2079347,57.7968583 77.9568327,57.9785587 77.6632816,58.10617 C77.3694041,58.2341053 77.0441796,58.2979109 76.6879347,58.2979109" id="Fill-27" fill="#818181" mask="url(#mask-4)"></path>
                    <path d="M80.619102,55.636081 C80.619102,55.9243401 80.6589388,56.1973765 80.7379592,56.4561619 C80.8173061,56.7149474 80.9312653,56.9406964 81.0798367,57.1340567 C81.2280816,57.327417 81.4099592,57.4809393 81.6244898,57.5955951 C81.8386939,57.710251 82.0816327,57.7675789 82.3523265,57.7675789 C82.6556735,57.7675789 82.9217959,57.707336 83.1493878,57.5858785 C83.3769796,57.4647449 83.5634286,57.2995628 83.7087347,57.0896842 C83.8540408,56.8804534 83.9598367,56.6365668 84.0257959,56.3580243 C84.0920816,56.0798057 84.1182041,55.7798866 84.1048163,55.4592389 C84.1048163,55.1385911 84.0607347,54.8551903 83.9715918,54.6093603 C83.8821224,54.3638543 83.7583673,54.1562429 83.5996735,53.9855547 C83.4416327,53.8155142 83.2564898,53.6859595 83.045551,53.5978623 C82.8339592,53.5094413 82.603102,53.4650688 82.3523265,53.4650688 C82.075102,53.4650688 81.8272653,53.5211012 81.6094694,53.6321943 C81.3916735,53.7436113 81.2101224,53.8958381 81.0648163,54.0888745 C80.9195102,54.2819109 80.8088163,54.5112227 80.7333878,54.7764858 C80.6569796,55.041749 80.619102,55.3283887 80.619102,55.636081 L80.619102,55.636081 Z M80.619102,60.1640162 L80.0251429,60.1640162 L80.0251429,53.0721943 L80.619102,53.0721943 L80.619102,53.9661215 L80.6393469,53.9661215 C80.7245714,53.8025587 80.8352653,53.6551903 80.9707755,53.5240162 C81.1059592,53.393166 81.2545306,53.2849879 81.4161633,53.2001296 C81.578449,53.1149474 81.7446531,53.0495223 81.9167347,53.0035304 C82.0881633,52.9575385 82.2566531,52.9345425 82.4218776,52.9345425 C82.837551,52.9345425 83.1908571,53.0035304 83.4811429,53.1411822 C83.7717551,53.2785101 84.011102,53.4670121 84.1991837,53.7057166 C84.3872653,53.9447449 84.5244082,54.2281457 84.6099592,54.5555951 C84.6958367,54.8830445 84.7386122,55.233166 84.7386122,55.6066073 C84.7386122,55.9602915 84.692898,56.3006964 84.6001633,56.6281457 C84.5077551,56.9555951 84.3673469,57.2419109 84.1792653,57.4877409 C83.9911837,57.733247 83.7534694,57.9295223 83.466449,58.0768907 C83.1794286,58.2242591 82.8408163,58.2981053 82.4512653,58.2981053 C82.0881633,58.2981053 81.7400816,58.2177814 81.4063673,58.0574575 C81.0733061,57.8968097 80.8107755,57.6594008 80.619102,57.3449069 L80.619102,60.1640162 Z" id="Fill-28" fill="#818181" mask="url(#mask-4)"></path>
                    <path d="M86.4717714,55.636081 C86.4717714,55.9243401 86.5112816,56.1973765 86.590302,56.4561619 C86.669649,56.7149474 86.7836082,56.9406964 86.9321796,57.1340567 C87.080751,57.327417 87.262302,57.4809393 87.4768327,57.5955951 C87.6910367,57.710251 87.9339755,57.7675789 88.2046694,57.7675789 C88.5083429,57.7675789 88.7741388,57.707336 89.0017306,57.5858785 C89.229649,57.4647449 89.416098,57.2995628 89.5614041,57.0896842 C89.7063837,56.8804534 89.8121796,56.6365668 89.8784653,56.3580243 C89.9444245,56.0798057 89.9708735,55.7798866 89.9574857,55.4592389 C89.9574857,55.1385911 89.9130776,54.8551903 89.8239347,54.6093603 C89.7347918,54.3638543 89.6107102,54.1562429 89.4523429,53.9855547 C89.294302,53.8155142 89.1091592,53.6859595 88.8978939,53.5978623 C88.6866286,53.5094413 88.4554449,53.4650688 88.2046694,53.4650688 C87.9274449,53.4650688 87.6799347,53.5211012 87.4618122,53.6321943 C87.2440163,53.7436113 87.0624653,53.8958381 86.9171592,54.0888745 C86.7721796,54.2819109 86.6614857,54.5112227 86.5857306,54.7764858 C86.509649,55.041749 86.4717714,55.3283887 86.4717714,55.636081 L86.4717714,55.636081 Z M86.4717714,60.1640162 L85.8774857,60.1640162 L85.8774857,53.0721943 L86.4717714,53.0721943 L86.4717714,53.9661215 L86.4916898,53.9661215 C86.5772408,53.8025587 86.6879347,53.6551903 86.8231184,53.5240162 C86.958302,53.393166 87.1068735,53.2849879 87.2688327,53.2001296 C87.4307918,53.1149474 87.5969959,53.0495223 87.7690776,53.0035304 C87.9405061,52.9575385 88.1089959,52.9345425 88.2742204,52.9345425 C88.6898939,52.9345425 89.0432,53.0035304 89.3338122,53.1411822 C89.624098,53.2785101 89.8634449,53.4670121 90.0515265,53.7057166 C90.2396082,53.9447449 90.376751,54.2281457 90.4626286,54.5555951 C90.5481796,54.8830445 90.5912816,55.233166 90.5912816,55.6066073 C90.5912816,55.9602915 90.5452408,56.3006964 90.4525061,56.6281457 C90.360098,56.9555951 90.2200163,57.2419109 90.0316082,57.4877409 C89.8435265,57.733247 89.6061388,57.9295223 89.3187918,58.0768907 C89.0317714,58.2242591 88.6931592,58.2981053 88.3036082,58.2981053 C87.9405061,58.2981053 87.5924245,58.2177814 87.2590367,58.0574575 C86.925649,57.8968097 86.6631184,57.6594008 86.4717714,57.3449069 L86.4717714,60.1640162 Z" id="Fill-29" fill="#818181" mask="url(#mask-4)"></path>
                    <path d="M95.3745306,55.262834 C95.3745306,55.0137652 95.3399184,54.779919 95.2706939,54.5603239 C95.2011429,54.3410526 95.0986122,54.1509312 94.9634286,53.9906073 C94.8279184,53.8302834 94.6581224,53.7026721 94.4537143,53.6077733 C94.2489796,53.5128745 94.0145306,53.4649393 93.7503673,53.4649393 C93.4862041,53.4649393 93.2537143,53.5144939 93.0522449,53.6123077 C92.8507755,53.7107692 92.6790204,53.8416194 92.5373061,54.0051822 C92.3952653,54.1690688 92.2813061,54.3588664 92.1957551,54.5752227 C92.1098776,54.7912551 92.0537143,55.0205668 92.0272653,55.262834 L95.3745306,55.262834 Z M92.0272653,55.7538462 C92.0272653,56.0288259 92.0635102,56.2892308 92.1363265,56.5347368 C92.2088163,56.7805668 92.3162449,56.9933603 92.4579592,57.1731174 C92.6,57.3535223 92.7799184,57.4973279 92.9980408,57.6051822 C93.2158367,57.7133603 93.4662857,57.7674494 93.7503673,57.7674494 C94.1399184,57.7674494 94.4733061,57.6660729 94.7505306,57.462996 C95.0277551,57.2602429 95.2125714,56.9716599 95.3049796,56.5985425 L95.9684898,56.5985425 C95.896,56.8408097 95.8003265,57.0649393 95.6814694,57.2712551 C95.5626122,57.4778947 95.4140408,57.6579757 95.2357551,57.8118219 C95.0574694,57.965668 94.8462041,58.0851822 94.6022857,58.1703644 C94.3577143,58.2552227 94.0739592,58.2979757 93.7503673,58.2979757 C93.340898,58.2979757 92.9875918,58.2289879 92.6907755,58.0916599 C92.3936327,57.954332 92.1493878,57.7661538 91.9580408,57.5268016 C91.7663673,57.2877733 91.6246531,57.0063158 91.5319184,56.6821053 C91.4395102,56.3578947 91.3937959,56.0093927 91.3937959,55.6359514 C91.3937959,55.262834 91.448,54.9123887 91.5570612,54.5849393 C91.6661224,54.2574899 91.820898,53.9711741 92.0223673,53.7253441 C92.2238367,53.4798381 92.4697143,53.2868016 92.76,53.1459109 C93.0506122,53.0050202 93.3807347,52.9347368 93.7503673,52.9347368 C94.4566531,52.9347368 95.0114286,53.1753846 95.4140408,53.6566802 C95.8166531,54.1379757 96.0148571,54.837247 96.008,55.7538462 L92.0272653,55.7538462 Z" id="Fill-30" fill="#818181" mask="url(#mask-4)"></path>
                    <path d="M97.4838857,58.1604211 L96.8899265,58.1604211 L96.8899265,53.0721619 L97.4838857,53.0721619 L97.4838857,53.8384777 L97.5038041,53.8384777 C97.6553143,53.5437409 97.8731102,53.3196113 98.1575184,53.1654413 C98.4412735,53.011919 98.7514776,52.9345101 99.0881306,52.9345101 C99.3258449,52.9345101 99.5273143,52.9607449 99.6922122,53.0132146 C99.8574367,53.0660081 99.9975184,53.1359676 100.11311,53.2247126 C100.228376,53.3128097 100.324376,53.4161296 100.400457,53.5340243 C100.476212,53.6515951 100.540212,53.7795304 100.59311,53.9168583 C100.764865,53.5829312 100.994416,53.3358057 101.281763,53.1751579 C101.568784,53.014834 101.897273,52.9345101 102.266906,52.9345101 C102.616947,52.9345101 102.895804,52.9921619 103.103804,53.1064939 C103.311804,53.2211498 103.471804,53.3717571 103.584131,53.5583158 C103.696131,53.7451984 103.77058,53.9596113 103.806824,54.2018785 C103.843069,54.4441457 103.861355,54.6928907 103.861355,54.9484372 L103.861355,58.1604211 L103.267069,58.1604211 L103.267069,54.6439838 C103.267069,54.2773441 103.189682,53.989085 103.03458,53.7795304 C102.879151,53.5699757 102.590498,53.4650364 102.167967,53.4650364 C101.950171,53.4650364 101.740212,53.5126478 101.539069,53.6075466 C101.3376,53.7024453 101.161273,53.8485182 101.009437,54.0447935 C100.943151,54.1299757 100.888947,54.2297328 100.845845,54.3443887 C100.802743,54.4587206 100.768457,54.5782348 100.742008,54.7026073 C100.715233,54.8273036 100.697273,54.9516761 100.687478,55.0763725 C100.677355,55.2004211 100.672784,55.3154008 100.672784,55.4196923 L100.672784,58.1604211 L100.078171,58.1604211 L100.078171,54.6439838 C100.078171,54.2773441 100.000784,53.989085 99.8456816,53.7795304 C99.6905796,53.5699757 99.4016,53.4650364 98.9790694,53.4650364 C98.7612735,53.4650364 98.5519673,53.5126478 98.3501714,53.6075466 C98.148702,53.7024453 97.9723755,53.8485182 97.8205388,54.0447935 C97.7545796,54.1299757 97.700049,54.2297328 97.6569469,54.3443887 C97.6138449,54.4587206 97.5795592,54.5782348 97.5531102,54.7026073 C97.5266612,54.8273036 97.508702,54.9516761 97.4985796,55.0763725 C97.4887837,55.2004211 97.4838857,55.3154008 97.4838857,55.4196923 L97.4838857,58.1604211 Z" id="Fill-31" fill="#818181" mask="url(#mask-4)"></path>
                    <path d="M108.733584,55.262834 C108.733584,55.0137652 108.698971,54.779919 108.629747,54.5603239 C108.560196,54.3410526 108.457665,54.1509312 108.322482,53.9906073 C108.186971,53.8302834 108.017176,53.7026721 107.812767,53.6077733 C107.608033,53.5128745 107.373584,53.4649393 107.10942,53.4649393 C106.845257,53.4649393 106.612767,53.5144939 106.411298,53.6123077 C106.209829,53.7107692 106.038073,53.8416194 105.896359,54.0051822 C105.754318,54.1690688 105.640359,54.3588664 105.554808,54.5752227 C105.468931,54.7912551 105.412767,55.0205668 105.386318,55.262834 L108.733584,55.262834 Z M105.386318,55.7538462 C105.386318,56.0288259 105.422563,56.2892308 105.49538,56.5347368 C105.567869,56.7805668 105.675298,56.9933603 105.817012,57.1731174 C105.959053,57.3535223 106.138971,57.4973279 106.357094,57.6051822 C106.57489,57.7133603 106.825339,57.7674494 107.10942,57.7674494 C107.498971,57.7674494 107.832359,57.6660729 108.109584,57.462996 C108.386808,57.2602429 108.571624,56.9716599 108.664033,56.5985425 L109.327543,56.5985425 C109.255053,56.8408097 109.15938,57.0649393 109.040522,57.2712551 C108.921665,57.4778947 108.773094,57.6579757 108.594808,57.8118219 C108.416522,57.965668 108.205257,58.0851822 107.961339,58.1703644 C107.716767,58.2552227 107.433012,58.2979757 107.10942,58.2979757 C106.699951,58.2979757 106.346645,58.2289879 106.049829,58.0916599 C105.752686,57.954332 105.508441,57.7661538 105.317094,57.5268016 C105.12542,57.2877733 104.983706,57.0063158 104.890971,56.6821053 C104.798563,56.3578947 104.752849,56.0093927 104.752849,55.6359514 C104.752849,55.262834 104.807053,54.9123887 104.916114,54.5849393 C105.025176,54.2574899 105.179951,53.9711741 105.38142,53.7253441 C105.58289,53.4798381 105.828767,53.2868016 106.119053,53.1459109 C106.409665,53.0050202 106.739788,52.9347368 107.10942,52.9347368 C107.815706,52.9347368 108.370482,53.1753846 108.773094,53.6566802 C109.175706,54.1379757 109.37391,54.837247 109.367053,55.7538462 L105.386318,55.7538462 Z" id="Fill-32" fill="#818181" mask="url(#mask-4)"></path>
                    <path d="M110.922024,58.1604211 L110.328065,58.1604211 L110.328065,53.0721619 L110.922024,53.0721619 L110.922024,53.7795304 C111.160065,53.5307854 111.405616,53.3277085 111.659984,53.1706235 C111.914024,53.0132146 112.219657,52.9345101 112.575902,52.9345101 C112.892637,52.9345101 113.186514,52.9885992 113.457535,53.0967773 C113.727902,53.2046316 113.95582,53.3931336 114.14031,53.6616356 C114.265698,53.8449555 114.340147,54.0334575 114.363331,54.2264939 C114.386188,54.4195304 114.398269,54.6209879 114.398269,54.8305425 L114.398269,58.1604211 L113.803984,58.1604211 L113.803984,54.8402591 C113.803984,54.3819595 113.701453,54.0379919 113.497045,53.8086802 C113.29231,53.5796923 112.952392,53.4650364 112.476963,53.4650364 C112.29182,53.4650364 112.123657,53.4932146 111.97182,53.5485992 C111.819984,53.6046316 111.682841,53.67783 111.560718,53.7694899 C111.438596,53.8614737 111.334759,53.9660891 111.248882,54.0839838 C111.163004,54.2018785 111.097045,54.326251 111.051004,54.4571012 C110.991576,54.6209879 110.955331,54.7783968 110.941943,54.9286802 C110.928882,55.0792874 110.922024,55.2428502 110.922024,55.4196923 L110.922024,58.1604211 Z" id="Fill-33" fill="#818181" mask="url(#mask-4)"></path>
                    <path d="M117.437976,58.1800486 C117.365159,58.193004 117.269486,58.216 117.150955,58.2490364 C117.032098,58.2814251 116.899853,58.2979433 116.754547,58.2979433 C116.457731,58.2979433 116.231445,58.2244211 116.076343,58.0770526 C115.920914,57.9296842 115.843527,57.6660405 115.843527,57.2861215 L115.843527,53.5633684 L115.120588,53.5633684 L115.120588,53.0720324 L115.843527,53.0720324 L115.843527,51.6576194 L116.437812,51.6576194 L116.437812,53.0720324 L117.398465,53.0720324 L117.398465,53.5633684 L116.437812,53.5633684 L116.437812,57.0506559 C116.437812,57.1747045 116.441078,57.2828826 116.447935,57.3748664 C116.454139,57.4665263 116.474057,57.5413441 116.507037,57.6006154 C116.540016,57.6595628 116.591282,57.7019919 116.660506,57.7282267 C116.730057,57.7547854 116.827363,57.7677409 116.952751,57.7677409 C117.032098,57.7677409 117.112751,57.7609393 117.195363,57.7479838 C117.277976,57.7347045 117.358955,57.7181862 117.437976,57.698753 L117.437976,58.1800486 Z" id="Fill-34" fill="#818181" mask="url(#mask-4)"></path>
                    <path d="M124.706482,55.5965344 C124.706482,55.3085992 124.666971,55.0352389 124.587951,54.7764534 C124.508604,54.5179919 124.394645,54.291919 124.246073,54.0988826 C124.097502,53.9055223 123.915951,53.7516761 123.70142,53.6370202 C123.48689,53.5226883 123.243951,53.4650364 122.973584,53.4650364 C122.663053,53.4650364 122.395951,53.5256032 122.171298,53.6467368 C121.946971,53.7678704 121.761829,53.9333765 121.616849,54.1429312 C121.471543,54.3524858 121.366073,54.5963725 121.299788,54.8745911 C121.233829,55.1531336 121.20738,55.4527287 121.220767,55.7733765 C121.220767,56.0943482 121.265176,56.3774251 121.354318,56.6232551 C121.443461,56.8687611 121.567543,57.0766964 121.72591,57.2470607 C121.883951,57.4171012 122.069094,57.5466559 122.280359,57.6350769 C122.491624,57.7231741 122.722482,57.7675466 122.973584,57.7675466 C123.250808,57.7675466 123.498318,57.7118381 123.716441,57.6004211 C123.934237,57.4893279 124.115461,57.3371012 124.261094,57.1437409 C124.406073,56.9507045 124.516767,56.7213927 124.592522,56.4561296 C124.668604,56.1908664 124.706482,55.9045506 124.706482,55.5965344 L124.706482,55.5965344 Z M124.706482,51.0880324 L125.300767,51.0880324 L125.300767,58.1604211 L124.706482,58.1604211 L124.706482,57.2664939 L124.686563,57.2664939 C124.601012,57.4371822 124.490318,57.5858462 124.355135,57.7134575 C124.219624,57.8413927 124.071053,57.9476275 123.90942,58.0324858 C123.747461,58.1179919 123.580931,58.1830931 123.409176,58.229085 C123.23742,58.2750769 123.068931,58.2980729 122.904033,58.2980729 C122.488359,58.2980729 122.135053,58.229085 121.844441,58.0917571 C121.554155,57.9541053 121.314808,57.7659271 121.126727,57.5268988 C120.938645,57.2878704 120.801502,57.0047935 120.715624,56.6773441 C120.630073,56.3498947 120.586971,55.9994494 120.586971,55.626332 C120.586971,55.2726478 120.633012,54.931919 120.725747,54.6044696 C120.818155,54.2773441 120.958237,53.9907045 121.146645,53.7451984 C121.334727,53.4993684 121.572114,53.3030931 121.859461,53.1557247 C122.146482,53.0083563 122.484767,52.9345101 122.874645,52.9345101 C123.23742,52.9345101 123.585829,53.014834 123.919216,53.1751579 C124.252604,53.3361296 124.515135,53.5732146 124.706482,53.8877085 L124.706482,51.0880324 Z" id="Fill-35" fill="#818181" mask="url(#mask-4)"></path>
                    <path d="M130.074155,53.0721943 L130.668114,53.0721943 L130.668114,58.1604534 L130.074155,58.1604534 L130.074155,57.453085 C129.994808,57.5450688 129.905665,57.6399676 129.806727,57.7381053 C129.707461,57.8362429 129.593502,57.9262834 129.465176,58.0082267 C129.336196,58.09017 129.185992,58.158834 129.014563,58.2145425 C128.842808,58.2699271 128.644604,58.2981053 128.420278,58.2981053 C128.076767,58.2981053 127.789747,58.25017 127.558563,58.1552713 C127.32738,58.0606964 127.141257,57.9279028 126.999216,57.7578623 C126.856849,57.587498 126.754971,57.3892794 126.692278,57.1635304 C126.629257,56.9377814 126.59791,56.690332 126.59791,56.42183 L126.59791,53.0721943 L127.192196,53.0721943 L127.192196,56.4121134 C127.192196,56.8506559 127.2944,57.1865263 127.499135,57.418753 C127.703869,57.6513036 128.040196,57.7675789 128.50942,57.7675789 C128.753339,57.7675789 128.973094,57.7202915 129.168033,57.6250688 C129.362318,57.5304939 129.52591,57.3973765 129.658155,57.227336 C129.790073,57.0572955 129.892278,56.8542186 129.965094,56.6181053 C130.037584,56.3826397 130.074155,56.1238543 130.074155,55.8423968 L130.074155,53.0721943 Z" id="Fill-36" fill="#818181" mask="url(#mask-4)"></path>
                    <path d="M135.22338,57.5907692 L136.83742,57.5907692 C137.141094,57.5907692 137.426808,57.5726316 137.694237,57.5366802 C137.961665,57.5007287 138.233992,57.4106883 138.511216,57.2665587 C138.748931,57.148664 138.943869,56.9883401 139.09538,56.7852632 C139.247216,56.5825101 139.367706,56.3612955 139.457176,56.1222672 C139.545992,55.8832389 139.609012,55.6328745 139.645257,55.3708502 C139.681176,55.1088259 139.699461,54.8568421 139.699461,54.6145749 C139.699461,54.3587045 139.683135,54.0989474 139.650155,53.8333603 C139.616849,53.5684211 139.554482,53.3164372 139.461747,53.077085 C139.369339,52.8380567 139.243951,52.6187854 139.085584,52.4189474 C138.927216,52.2194332 138.722482,52.0539271 138.471706,51.9230769 C138.260441,51.8116599 138.009339,51.7397571 137.719053,51.7067206 C137.428441,51.6740081 137.13489,51.6578138 136.83742,51.6578138 L135.22338,51.6578138 L135.22338,57.5907692 Z M134.550073,58.1604858 L134.550073,51.0880972 L136.985992,51.0880972 C137.184196,51.0880972 137.379135,51.0929555 137.570155,51.102996 C137.761829,51.1127126 137.950237,51.1353846 138.135053,51.1716599 C138.319543,51.2076113 138.499461,51.2617004 138.674482,51.3336032 C138.849176,51.4055061 139.019624,51.5004049 139.184849,51.6186235 C139.422237,51.7889879 139.616849,51.9969231 139.769012,52.2421053 C139.920849,52.4876113 140.041339,52.7467206 140.130155,53.0181377 C140.219624,53.2902024 140.281992,53.5648583 140.318563,53.8434008 C140.354808,54.1216194 140.373094,54.3787854 140.373094,54.6145749 C140.373094,54.8500405 140.3584,55.0890688 140.328359,55.331336 C140.298645,55.5736032 140.250645,55.811336 140.184686,56.0438866 C140.118727,56.2761134 140.031543,56.4989474 139.922482,56.711417 C139.813747,56.9242105 139.676604,57.1191903 139.51138,57.2960324 C139.346482,57.4793522 139.166237,57.6267206 138.971624,57.7381377 C138.777012,57.8495547 138.572278,57.9360324 138.357747,57.9985425 C138.14289,58.0607287 137.920522,58.1031579 137.689339,58.12583 C137.458155,58.1491498 137.224033,58.1604858 136.985992,58.1604858 L134.550073,58.1604858 Z" id="Fill-37" fill="#010202" mask="url(#mask-4)"></path>
                    <path d="M141.545526,58.1603239 L142.2724,58.1603239 L142.2724,53.0720648 L141.545526,53.0720648 L141.545526,58.1603239 Z M141.472,51.9621053 L142.272,51.9621053 L142.272,51.0879352 L141.472,51.0879352 L141.472,51.9621053 Z" id="Fill-38" fill="#010202" mask="url(#mask-4)"></path>
                    <path d="M147.374204,55.636081 C147.374204,55.3283887 147.336327,55.041749 147.260245,54.7764858 C147.18449,54.5112227 147.073796,54.2819109 146.928816,54.0888745 C146.783184,53.8958381 146.601959,53.7436113 146.384163,53.6321943 C146.166041,53.5211012 145.918531,53.4650688 145.641306,53.4650688 C145.390204,53.4650688 145.159347,53.5094413 144.948082,53.5978623 C144.736816,53.6859595 144.551673,53.8155142 144.393633,53.9855547 C144.235265,54.1562429 144.111184,54.3638543 144.022041,54.6093603 C143.932898,54.8551903 143.88849,55.1385911 143.88849,55.4592389 C143.875102,55.7798866 143.901551,56.0798057 143.96751,56.3580243 C144.033796,56.6365668 144.139265,56.8804534 144.284571,57.0896842 C144.429551,57.2995628 144.614694,57.4647449 144.83902,57.5858785 C145.063673,57.707336 145.330776,57.7675789 145.641306,57.7675789 C145.911673,57.7675789 146.154612,57.710251 146.369143,57.5955951 C146.583673,57.4809393 146.765224,57.327417 146.913796,57.1340567 C147.062367,56.9406964 147.176327,56.7149474 147.255673,56.4561619 C147.334694,56.1973765 147.374204,55.9243401 147.374204,55.636081 L147.374204,55.636081 Z M147.374204,53.0721943 L147.96849,53.0721943 L147.96849,57.6691174 C147.96849,58.0098462 147.933878,58.3356761 147.864653,58.6466073 C147.795102,58.9575385 147.671347,59.2312227 147.493061,59.4666883 C147.314776,59.7028016 147.070531,59.8909798 146.760327,60.0315466 C146.449796,60.1724372 146.050449,60.2430445 145.561959,60.2430445 C145.185796,60.2430445 144.862204,60.1951093 144.591837,60.1002105 C144.32049,60.0053117 144.099755,59.8857976 143.928,59.7419919 C143.756245,59.5975385 143.625959,59.438834 143.536816,59.2655547 C143.448,59.0919514 143.399673,58.9300081 143.393469,58.7794008 L144.026939,58.7794008 C144.073306,58.9691984 144.145796,59.124664 144.245061,59.2461215 C144.344,59.3672551 144.461224,59.4621538 144.596408,59.5304939 C144.731592,59.5994818 144.881796,59.6470931 145.04702,59.6733279 C145.211918,59.6992389 145.383673,59.7125182 145.561959,59.7125182 C145.964898,59.7125182 146.288163,59.6435304 146.532735,59.5062024 C146.776653,59.3685506 146.961469,59.1884696 147.087184,58.9659595 C147.212571,58.7431255 147.293224,58.4908178 147.329469,58.2093603 C147.366041,57.9279028 147.381061,57.6399676 147.374204,57.3449069 C147.182857,57.6594008 146.920327,57.8968097 146.586939,58.0574575 C146.253551,58.2177814 145.905143,58.2981053 145.542367,58.2981053 C145.15249,58.2981053 144.814204,58.2242591 144.527184,58.0768907 C144.239837,57.9295223 144.002449,57.733247 143.814367,57.4877409 C143.625959,57.2419109 143.485878,56.9555951 143.393469,56.6281457 C143.300735,56.3006964 143.254694,55.9602915 143.254694,55.6066073 C143.254694,55.233166 143.297796,54.8830445 143.383347,54.5555951 C143.469224,54.2281457 143.606367,53.9447449 143.794449,53.7057166 C143.982531,53.4670121 144.221878,53.2785101 144.512163,53.1411822 C144.802776,53.0035304 145.156082,52.9345425 145.571755,52.9345425 C145.736653,52.9345425 145.905143,52.9575385 146.076898,53.0035304 C146.248653,53.0495223 146.415184,53.1149474 146.577143,53.2001296 C146.738776,53.2849879 146.887347,53.393166 147.022857,53.5240162 C147.158041,53.6551903 147.268735,53.8025587 147.354286,53.9661215 L147.374204,53.9661215 L147.374204,53.0721943 Z" id="Fill-39" fill="#010202" mask="url(#mask-4)"></path>
                    <path d="M149.398261,58.1603239 L150.125134,58.1603239 L150.125134,53.0720648 L149.398261,53.0720648 L149.398261,58.1603239 Z M149.324735,51.9621053 L150.124735,51.9621053 L150.124735,51.0879352 L149.324735,51.0879352 L149.324735,51.9621053 Z" id="Fill-40" fill="#010202" mask="url(#mask-4)"></path>
                    <path d="M153.068082,58.1800486 C152.995265,58.193004 152.899592,58.216 152.781061,58.2490364 C152.662204,58.2814251 152.529959,58.2979433 152.384653,58.2979433 C152.087837,58.2979433 151.861551,58.2244211 151.706449,58.0770526 C151.55102,57.9296842 151.473633,57.6660405 151.473633,57.2861215 L151.473633,53.5633684 L150.750694,53.5633684 L150.750694,53.0720324 L151.473633,53.0720324 L151.473633,51.6576194 L152.067918,51.6576194 L152.067918,53.0720324 L153.028571,53.0720324 L153.028571,53.5633684 L152.067918,53.5633684 L152.067918,57.0506559 C152.067918,57.1747045 152.071184,57.2828826 152.078041,57.3748664 C152.084245,57.4665263 152.104163,57.5413441 152.137143,57.6006154 C152.170122,57.6595628 152.221388,57.7019919 152.290612,57.7282267 C152.360163,57.7547854 152.457469,57.7677409 152.582857,57.7677409 C152.662204,57.7677409 152.742857,57.7609393 152.825469,57.7479838 C152.908082,57.7347045 152.989061,57.7181862 153.068082,57.698753 L153.068082,58.1800486 Z" id="Fill-41" fill="#010202" mask="url(#mask-4)"></path>
                    <path d="M157.177763,55.4886802 C156.926661,55.5932955 156.67262,55.6622834 156.415314,55.694996 C156.157682,55.7277085 155.900376,55.7536194 155.642743,55.7733765 C155.187233,55.8060891 154.832294,55.9077895 154.578253,56.07783 C154.324212,56.2485182 154.196865,56.5069798 154.196865,56.8541862 C154.196865,57.0109474 154.228212,57.1469798 154.290906,57.2616356 C154.353927,57.3762915 154.436212,57.4711903 154.538743,57.5466559 C154.64062,57.6217976 154.759804,57.6775061 154.895314,57.7134575 C155.030498,57.7494089 155.167641,57.7675466 155.30609,57.7675466 C155.543804,57.7675466 155.774661,57.7380729 155.999314,57.6791255 C156.223641,57.6201781 156.423151,57.5304615 156.598498,57.409004 C156.773192,57.2878704 156.9136,57.1340243 157.019396,56.9474656 C157.124865,56.7609069 157.177763,56.5396923 157.177763,56.2841457 L157.177763,55.4886802 Z M156.1776,55.1939433 C156.2896,55.1809879 156.423151,55.1612308 156.57858,55.134996 C156.733682,55.1087611 156.860702,55.0728097 156.959967,55.0268178 C157.058906,54.9814737 157.119641,54.9040648 157.143151,54.7958866 C157.166008,54.6880324 157.177763,54.5882753 157.177763,54.4966154 C157.177763,54.1954008 157.080131,53.9479514 156.885518,53.754915 C156.690906,53.5618785 156.362416,53.4650364 155.900376,53.4650364 C155.695641,53.4650364 155.507559,53.483498 155.335804,53.5191255 C155.164049,53.5550769 155.013845,53.617587 154.885192,53.7056842 C154.756539,53.7944291 154.650743,53.912 154.568457,54.0593684 C154.485845,54.2067368 154.431314,54.3916761 154.404865,54.6145101 L153.800784,54.6145101 C153.820702,54.3132955 153.889927,54.0561296 154.008784,53.843336 C154.127641,53.6308664 154.28111,53.4572632 154.469192,53.3228502 C154.657273,53.1884372 154.875069,53.0902996 155.122906,53.0277895 C155.370416,52.9659271 155.632947,52.9345101 155.910171,52.9345101 C156.167478,52.9345101 156.41009,52.9626883 156.638008,53.0180729 C156.865927,53.0741053 157.063804,53.1622024 157.232294,53.283336 C157.400784,53.4044696 157.532702,53.5667368 157.628376,53.7694899 C157.724049,53.9725668 157.771722,54.2216356 157.771722,54.5160486 L157.771722,57.286251 C157.771722,57.5155628 157.812865,57.6613117 157.895478,57.7231741 C157.97809,57.7856842 158.144947,57.7707854 158.395722,57.6791255 L158.395722,58.140664 C158.349682,58.1539433 158.28209,58.1733765 158.19262,58.1996113 C158.103804,58.2258462 158.015967,58.2388016 157.930416,58.2388016 C157.837682,58.2388016 157.748539,58.229085 157.662988,58.2093279 C157.564049,58.1963725 157.484702,58.1656032 157.425273,58.1160486 C157.365845,58.0671417 157.317845,58.0081943 157.2816,57.9392065 C157.245355,57.8705425 157.220539,57.7954008 157.207478,57.7134575 C157.19409,57.6315142 157.187559,57.5450364 157.187559,57.4530526 C156.936784,57.7283563 156.649437,57.9379109 156.326171,58.0820405 C156.002253,58.2258462 155.652539,58.2980729 155.276376,58.2980729 C155.051722,58.2980729 154.835559,58.2685992 154.627559,58.2093279 C154.419886,58.1507045 154.236376,58.0590445 154.078008,57.9346721 C153.919641,57.8102996 153.794253,57.657749 153.701518,57.4779919 C153.60911,57.297587 153.563396,57.083498 153.563396,56.8341053 C153.563396,55.9699757 154.16062,55.4592065 155.355722,55.3021215 L156.1776,55.1939433 Z" id="Fill-42" fill="#010202" mask="url(#mask-4)"></path>
                    <polygon id="Fill-43" fill="#010202" mask="url(#mask-4)" points="159.217959 58.1603239 159.811918 58.1603239 159.811918 51.0879352 159.217959 51.0879352"></polygon>
                </g>
                <g id="Group-47" transform="translate(0.653061, 2.931822)" fill="url(#linearGradient-5)">
                    <path d="M24.3124898,0.195951417 L22.9629388,8.0145749 L15.1350204,8.0145749 L16.4845714,0.195951417 L9.35804082,0.195951417 L8.0084898,8.0145749 L2.06987755,8.0145749 L2.06987755,14.8693117 L6.82057143,14.8693117 L5.47069388,22.7944939 L0.179918367,22.7944939 L0.179918367,29.6489069 L4.28310204,29.6489069 L2.87934694,37.6819433 L10.0058776,37.6819433 L11.4093061,29.6489069 L19.2378776,29.6489069 L17.8337959,37.6819433 L24.9606531,37.6819433 L26.3644082,29.6489069 L32.3026939,29.6489069 L32.3026939,22.7944939 L27.552,22.7944939 L28.9012245,14.8693117 L34.1923265,14.8693117 L34.1923265,8.0145749 L30.0891429,8.0145749 L31.4390204,0.195951417 L24.3124898,0.195951417 Z M13.9467755,14.8693117 L21.7746939,14.8693117 L20.4254694,22.7944939 L12.5972245,22.7944939 L13.9467755,14.8693117 Z" id="Fill-45"></path>
                </g>
                <g id="Group-55" transform="translate(35.918367, 0.016842)">
                    <g id="Group-50">
                        <mask id="mask-7" fill="white">
                            <use xlink:href="#path-6"></use>
                        </mask>
                        <g id="Clip-49"></g>
                        <path d="M34.4155102,29.1659271 L21.3686531,2.06892308 L8.32212245,29.1659271 L34.4155102,29.1659271 Z M20.8174694,0.306979757 L21.9812245,0.306979757 L42.6231837,43.1400162 L41.1528163,43.1400162 L35.0277551,30.3808259 L7.70987755,30.3808259 L1.58481633,43.1400162 L0.175836735,43.1400162 L20.8174694,0.306979757 Z" id="Fill-48" fill="#A8A8A8" mask="url(#mask-7)"></path>
                    </g>
                    <path d="M60.0668082,41.924664 C63.2106449,41.924664 66.1001143,41.4080648 68.7342367,40.3751903 C71.3677061,39.3419919 73.6233796,37.9249879 75.5022367,36.1222348 C77.3797878,34.3207773 78.8400327,32.2142186 79.8816653,29.8038543 C80.9226449,27.3944615 81.4434612,24.7917085 81.4434612,21.9968907 L81.4434612,21.8754332 C81.4434612,19.0802915 80.9226449,16.4681457 79.8816653,14.0377004 C78.8400327,11.6075789 77.3703184,9.48126316 75.4718694,7.65842915 C73.5724408,5.83559514 71.3066449,4.40790283 68.672849,3.37535223 C66.0384,2.34247773 63.1293388,1.82620243 59.9443592,1.82620243 L47.5717878,1.82620243 L47.5717878,41.924664 L60.0668082,41.924664 Z M46.2238694,0.61065587 L60.0057469,0.61065587 C63.3944816,0.61065587 66.4772571,1.1577004 69.2544,2.2511417 C72.0308898,3.34490688 74.4302367,4.84385425 76.4514612,6.74733603 C78.4726857,8.65146559 80.0348082,10.8888745 81.1371755,13.4608583 C82.2398694,16.033166 82.7913796,18.8176194 82.7913796,21.8145425 L82.7913796,21.936 C82.7913796,24.9338947 82.2398694,27.7183482 81.1371755,30.2896842 C80.0348082,32.8626397 78.4726857,35.1000486 76.4514612,37.0032065 C74.4302367,38.9079838 72.0308898,40.4056356 69.2544,41.4997247 C66.4772571,42.5928421 63.3944816,43.1398866 60.0057469,43.1398866 L46.2238694,43.1398866 L46.2238694,0.61065587 Z" id="Fill-51" fill="#A9A8A8"></path>
                    <path d="M100.765159,41.924664 C103.909322,41.924664 106.798465,41.4080648 109.432588,40.3751903 C112.066057,39.3419919 114.322384,37.9249879 116.200588,36.1222348 C118.078139,34.3207773 119.53871,32.2142186 120.580343,29.8038543 C121.621322,27.3944615 122.141812,24.7917085 122.141812,21.9968907 L122.141812,21.8754332 C122.141812,19.0802915 121.621322,16.4681457 120.580343,14.0377004 C119.53871,11.6075789 118.068996,9.48126316 116.17022,7.65842915 C114.271118,5.83559514 112.004996,4.40790283 109.3712,3.37535223 C106.737404,2.34247773 103.828016,1.82620243 100.643037,1.82620243 L88.2701388,1.82620243 L88.2701388,41.924664 L100.765159,41.924664 Z M86.9222204,0.61065587 L100.704098,0.61065587 C104.092833,0.61065587 107.175608,1.1577004 109.953078,2.2511417 C112.729567,3.34490688 115.128588,4.84385425 117.150139,6.74733603 C119.171363,8.65146559 120.733486,10.8888745 121.835527,13.4608583 C122.938547,16.033166 123.489731,18.8176194 123.489731,21.8145425 L123.489731,21.936 C123.489731,24.9338947 122.938547,27.7183482 121.835527,30.2896842 C120.733486,32.8626397 119.171363,35.1000486 117.150139,37.0032065 C115.128588,38.9079838 112.729567,40.4056356 109.953078,41.4997247 C107.175608,42.5928421 104.092833,43.1398866 100.704098,43.1398866 L86.9222204,43.1398866 L86.9222204,0.61065587 Z" id="Fill-53" fill="#A9A8A8"></path>
                </g>
            </g>
        </g>
    </g>
</svg>