<?xml version="1.0" encoding="UTF-8"?> <svg xmlns="http://www.w3.org/2000/svg" xmlns:xlink="http://www.w3.org/1999/xlink" width="270.543" height="94.584" viewBox="0 0 270.543 94.584"><defs><clipPath id="a"><rect width="270.543" height="94.584" fill="none"></rect></clipPath></defs><g clip-path="url(#a)"><path d="M296.843,172.757c-.281.631-.492.771-1.124.771h-4.424a.926.926,0,0,1-1.053-.771l-12.079-30.164c-.21-.422-.14-.983.492-.983h4.073a1,1,0,0,1,1.053.772l9.9,26.026h.14l9.831-26.026a1.054,1.054,0,0,1,1.053-.772h4c.7,0,.7.561.492.983Z" transform="translate(-177.755 -90.583)" fill="#ff0087"></path><path d="M379.607,109.25a3.09,3.09,0,1,1,3.09,3.087,3.056,3.056,0,0,1-3.09-3.087" transform="translate(-242.674 -67.954)" fill="#ff0087"></path><path d="M381.866,141.61h3.792a.693.693,0,0,1,.633.7v30.375a.63.63,0,0,1-.633.631h-3.792a.693.693,0,0,1-.7-.631V142.312a.755.755,0,0,1,.7-.7" transform="translate(-243.669 -90.583)" fill="#ff0087"></path><path d="M417.55,147.165c-.491.281-.842.14-.983-.21l-1.194-2.6c-.211-.42-.14-.631.351-.912a22.257,22.257,0,0,1,12.079-3.3c3.02,0,6.741.561,9.269,3.438,1.615,1.824,2.6,4.49,2.6,8.558v19.642a.629.629,0,0,1-.632.631h-3.3a.629.629,0,0,1-.632-.631v-1.122h-.281a17.377,17.377,0,0,1-9.551,2.455,13.611,13.611,0,0,1-7.865-2.244,8.435,8.435,0,0,1-3.581-7.086c0-4.349,2.668-6.8,6.531-8.278,4.284-1.613,9.972-2.034,14.186-2.245v-1.052c0-2.806-.492-4.49-1.615-5.823-1.4-1.614-3.652-2.1-5.759-2.1a18.346,18.346,0,0,0-9.621,2.877m17,19.853v-9.891a47.947,47.947,0,0,0-10.464,1.263c-3.02.772-5.337,2.315-5.337,5.121,0,3.928,4.073,5.542,8.006,5.542a17.208,17.208,0,0,0,7.8-2.034" transform="translate(-264.551 -89.649)" fill="#ff0087"></path><path d="M513.331,144.4a11.06,11.06,0,0,1,9.27-4.349,11.826,11.826,0,0,1,7.163,2.1,9.452,9.452,0,0,1,3.371,4.49,11.34,11.34,0,0,1,4.214-4.911,12.265,12.265,0,0,1,6.531-1.683c3.3,0,6.391.842,8.638,3.087,2.036,1.964,3.371,5.05,3.371,9.681v18.87a.629.629,0,0,1-.632.631h-3.862a.692.692,0,0,1-.7-.631V154.083c0-3.227-.7-5.822-2.106-7.366a7.421,7.421,0,0,0-5.759-2.175,7.1,7.1,0,0,0-6.391,3.367c-1.334,2.245-1.826,5.121-1.826,8.7v15.082a.629.629,0,0,1-.632.631h-3.862a.693.693,0,0,1-.7-.631V154.083c0-3.227-.7-5.822-2.107-7.366a7.42,7.42,0,0,0-5.759-2.175,7.1,7.1,0,0,0-6.391,3.367,16.036,16.036,0,0,0-1.826,8v15.784a.629.629,0,0,1-.632.631h-3.863a.692.692,0,0,1-.7-.631V141.316a.754.754,0,0,1,.7-.7h3.582a.755.755,0,0,1,.7.7V144.4Z" transform="translate(-324.839 -89.587)" fill="#540083"></path><path d="M661.65,144.823a17.676,17.676,0,0,1,24.158,0,16.936,16.936,0,0,1,0,23.43,17.677,17.677,0,0,1-24.158,0,16.936,16.936,0,0,1,0-23.43m3.511,20.273a11.73,11.73,0,0,0,17.135,0,13.168,13.168,0,0,0,0-17.117,11.73,11.73,0,0,0-17.135,0,13.169,13.169,0,0,0,0,17.117" transform="translate(-419.97 -89.587)" fill="#540083"></path><path d="M38.778,138.913,85.1,100.2,0,69.3Z" transform="translate(0 -44.329)" fill="#540083"></path><path d="M178.286,49.651,148.828,0l.045,38.955Z" transform="translate(-95.143 0.001)" fill="#ff0087"></path></g></svg> 